<?xml version="1.0" encoding="UTF-8" standalone="no"?>
<!-- Created with Inkscape (http://www.inkscape.org/) -->
<svg
   xmlns:svg="http://www.w3.org/2000/svg"
   xmlns="http://www.w3.org/2000/svg"
   version="1.0"
   width="227.33725"
   height="118.39162"
   id="svg2706">
  <defs
     id="defs2708">
    <clipPath
       id="clipPath51">
      <path
         d="M 0,329.628 L 245.003,329.628 L 245.003,479.401 L 0,479.401 L 0,329.628 z"
         id="path53" />
    </clipPath>
  </defs>
  <g
     transform="translate(-236.33137,-473.16635)"
     id="layer1">
    <path
       d="M 259.46762,537.4841 L 259.46762,516.41285 C 259.46762,509.57785 254.98262,507.21785 248.70512,507.21785 C 242.55762,507.21785 237.44012,509.8266 237.44012,516.5991 L 244.17387,516.5991 C 244.17387,513.6741 245.72512,512.06035 248.70512,512.06035 C 252.12387,512.06035 252.87137,514.54785 252.87137,517.4691 L 252.87137,520.39785 C 246.15512,520.58535 236.33137,521.52035 236.33137,530.4116 C 236.33137,535.4441 240.31637,538.1791 245.03262,538.1791 C 248.27262,538.1791 251.25137,537.1191 252.75387,534.07285 L 252.87137,534.07285 L 252.87137,537.4841 L 259.46762,537.4841 M 252.87137,524.4391 C 252.87137,528.23785 251.31512,533.32535 246.71637,533.32535 C 244.40887,533.32535 243.04512,532.1416 243.04512,529.78035 C 243.04512,525.3316 249.57762,524.4391 252.87137,524.4391"
       id="path57"
       style="fill:#7e8082;fill-opacity:1;fill-rule:nonzero;stroke:none" />
    <path
       d="M 279.93025,518.03947 C 279.93025,514.98947 279.06025,512.06072 275.45525,512.06072 C 271.09775,512.06072 269.79525,516.59947 269.79525,520.15572 C 269.79525,527.61697 274.1365,533.32447 281.9915,533.32447 C 283.659,533.32447 285.33275,533.13947 286.9565,532.55822 L 286.9565,536.80697 C 284.1515,537.68822 281.23775,538.17822 278.31025,538.17822 C 267.74525,538.17822 262.45775,531.70197 262.45775,521.39197 C 262.45775,512.79822 267.13275,507.21822 276.01775,507.21822 C 283.2315,507.21822 287.26525,510.75072 287.26525,518.03947 L 279.93025,518.03947"
       id="path61"
       style="fill:#7e8082;fill-opacity:1;fill-rule:nonzero;stroke:none" />
    <path
       d="M 306.43787,518.03947 C 306.43787,514.98947 305.56537,512.06072 301.96662,512.06072 C 297.61787,512.06072 296.29912,516.59947 296.29912,520.15572 C 296.29912,527.61697 300.66912,533.32447 308.49537,533.32447 C 310.16912,533.32447 311.84912,533.13947 313.46162,532.55822 L 313.46162,536.80697 C 310.67412,537.68822 307.74662,538.17822 304.82287,538.17822 C 294.25162,538.17822 288.97412,531.70197 288.97412,521.39197 C 288.97412,512.79822 293.64287,507.21822 302.52162,507.21822 C 309.74162,507.21822 313.78162,510.75072 313.78162,518.03947 L 306.43787,518.03947"
       id="path65"
       style="fill:#7e8082;fill-opacity:1;fill-rule:nonzero;stroke:none" />
    <path
       d="M 340.01862,520.90322 L 340.01862,519.20947 C 340.01862,511.99197 336.29487,507.21822 328.76362,507.21822 C 319.93737,507.21822 316.07612,512.74822 316.07612,521.14322 C 316.07612,530.90197 320.48987,538.17822 330.99487,538.17822 C 333.79612,538.17822 336.59612,537.86197 339.26237,536.99072 L 339.26237,532.22697 C 337.52987,532.82822 335.47112,533.32572 333.61737,533.32572 C 326.89612,533.32572 322.48237,527.19072 322.48237,520.90322 L 340.01862,520.90322 M 333.48987,516.72447 L 322.67362,516.72447 C 322.97987,513.73572 325.28987,511.61072 328.25862,511.61072 C 331.43862,511.61072 333.48987,513.55322 333.48987,516.72447"
       id="path69"
       style="fill:#7e8082;fill-opacity:1;fill-rule:nonzero;stroke:none" />
    <path
       d="M 360.47237,537.4841 L 360.47237,520.58535 C 360.47237,519.1566 360.59487,515.3566 359.41862,514.2366 C 358.91237,513.73535 358.11612,513.6741 357.42487,513.6741 C 352.45112,513.6741 350.45862,520.70285 350.45862,524.69535 L 350.45862,537.4841 L 343.55862,537.4841 L 343.55862,507.8941 L 350.45862,507.8941 L 350.45862,513.4266 L 350.58487,513.4266 C 352.14362,509.63785 355.11612,507.21785 359.35362,507.21785 C 365.01487,507.21785 367.37737,511.88035 367.37737,516.9766 L 367.37737,537.4841 L 360.47237,537.4841"
       id="path73"
       style="fill:#7e8082;fill-opacity:1;fill-rule:nonzero;stroke:none" />
    <path
       d="M 381.73987,512.68172 L 381.73987,526.67547 C 381.73987,530.16797 382.10237,533.32547 386.40987,533.32547 C 387.45737,533.32547 388.52362,533.09047 389.57987,532.82797 L 389.57987,537.68797 C 387.70362,537.99172 385.78987,538.17797 383.91737,538.17797 C 377.86862,538.17797 374.85362,536.18172 374.85362,530.03672 L 374.85362,512.68172 L 369.06237,512.68172 L 369.06237,507.89422 L 374.85362,507.89422 L 374.85362,500.88172 L 381.73987,498.07547 L 381.73987,507.89422 L 390.50862,507.89422 L 390.50862,512.68172 L 381.73987,512.68172"
       id="path77"
       style="fill:#7e8082;fill-opacity:1;fill-rule:nonzero;stroke:none" />
    <path
       d="M 410.48612,537.4841 L 410.48612,531.9641 L 410.36612,531.9641 C 408.79237,535.68535 405.76237,538.1791 401.59362,538.1791 C 395.93612,538.1791 393.56612,533.52035 393.56612,528.4266 L 393.56612,507.8941 L 400.47362,507.8941 L 400.47362,524.82035 C 400.47362,526.25285 400.35237,530.0366 401.52362,531.1541 C 402.03112,531.65535 402.83112,531.7016 403.52362,531.7016 C 408.48737,531.7016 410.48612,524.69535 410.48612,520.70285 L 410.48612,507.8941 L 417.39862,507.8941 L 417.39862,537.4841 L 410.48612,537.4841"
       id="path81"
       style="fill:#7e8082;fill-opacity:1;fill-rule:nonzero;stroke:none" />
    <path
       d="M 428.63862,524.5116 L 428.63862,537.4841 L 421.74237,537.4841 L 421.74237,507.8941 L 428.63862,507.8941 L 428.63862,513.3591 L 428.76112,513.3591 C 431.07112,509.27535 433.36737,507.21785 438.34487,507.21785 L 438.34487,514.4241 C 431.25987,514.4241 428.63862,517.5316 428.63862,524.5116"
       id="path85"
       style="fill:#7e8082;fill-opacity:1;fill-rule:nonzero;stroke:none" />
    <path
       d="M 463.66862,520.90322 L 463.66862,519.20947 C 463.66862,511.99197 459.94362,507.21822 452.41612,507.21822 C 443.58862,507.21822 439.72112,512.74822 439.72112,521.14322 C 439.72112,530.90197 444.14237,538.17822 454.63987,538.17822 C 457.45362,538.17822 460.24487,537.86197 462.91862,536.99072 L 462.91862,532.22697 C 461.18737,532.82822 459.12862,533.32572 457.26987,533.32572 C 450.54987,533.32572 446.12862,527.19072 446.12862,520.90322 L 463.66862,520.90322 M 457.13737,516.72447 L 446.32362,516.72447 C 446.63862,513.73572 448.93112,511.61072 451.91487,511.61072 C 455.08987,511.61072 457.13737,513.55322 457.13737,516.72447"
       id="path89"
       style="fill:#7e8082;fill-opacity:1;fill-rule:nonzero;stroke:none" />
    <path
       d="M 369.04737,473.16635 L 369.04737,478.0426 C 369.04737,478.0426 382.83737,483.3726 384.82237,484.13635 C 382.83737,484.89885 369.04737,490.2176 369.04737,490.2176 L 369.04737,495.0751 L 390.51362,486.3676 L 390.51362,481.8901 L 369.04737,473.16635"
       id="path93"
       style="fill:#7e8082;fill-opacity:1;fill-rule:nonzero;stroke:none" />
    <path
       d="M 246.367,586.65422 L 244.6295,586.65422 L 246.072,579.22422 L 239.52575,579.22422 L 238.0845,586.65422 L 236.34575,586.65422 L 239.412,570.87422 L 241.152,570.87422 L 239.82075,577.73547 L 246.367,577.73547 L 247.69325,570.87422 L 249.43325,570.87422 L 246.367,586.65422 z"
       id="path97"
       style="fill:#7e8082;fill-opacity:1;fill-rule:nonzero;stroke:none" />
    <path
       d="M 250.573,586.65422 L 248.953,586.65422 L 251.083,575.76922 L 252.70675,575.76922 L 250.573,586.65422 z M 253.46175,572.92297 L 251.40175,572.92297 L 251.7905,570.87422 L 253.8505,570.87422 L 253.46175,572.92297 z"
       id="path101"
       style="fill:#7e8082;fill-opacity:1;fill-rule:nonzero;stroke:none" />
    <path
       d="M 262.56812,575.76922 L 260.93937,575.76922 L 260.61937,577.48547 L 260.57687,577.48547 C 260.18562,576.33547 259.15562,575.51797 257.92312,575.51797 C 254.51437,575.51797 253.18812,580.11297 253.18812,582.86172 C 253.18812,584.52797 253.84812,586.65422 255.86437,586.65422 C 257.35312,586.65422 258.37687,585.95047 259.13562,584.74047 L 259.18437,584.77922 C 258.60687,587.80422 258.56312,589.84172 254.87937,589.84172 C 253.98437,589.84172 253.09187,589.60422 252.31562,589.22672 L 252.01812,590.77547 C 252.98062,590.98422 253.89437,591.14672 254.87937,591.14672 C 258.19937,591.14672 259.82312,589.87922 260.43937,586.65422 L 262.56812,575.76922 z M 260.00312,579.72922 C 260.00312,581.66922 258.97187,585.35547 256.52687,585.35547 C 255.20187,585.35547 254.97312,583.68422 254.97312,582.67172 C 254.97312,580.94672 255.77312,576.82297 258.03812,576.82297 C 259.52312,576.82297 260.00312,578.51047 260.00312,579.72922"
       id="path105"
       style="fill:#7e8082;fill-opacity:1;fill-rule:nonzero;stroke:none" />
    <path
       d="M 271.87425,579.63547 L 270.5305,586.65422 L 268.90925,586.65422 L 270.163,580.16172 C 270.278,579.56422 270.3455,578.94797 270.3455,578.33047 C 270.3455,577.55297 269.8655,577.02422 269.08925,577.02422 C 266.638,577.02422 265.4005,581.05297 265.04425,582.95422 L 264.333,586.65422 L 262.70675,586.65422 L 265.77425,570.87422 L 267.39925,570.87422 L 266.003,577.94297 L 266.043,577.98922 C 267.05425,576.50172 267.94675,575.51797 269.88675,575.51797 C 271.2855,575.51797 272.088,576.65922 272.088,577.96422 C 272.088,578.51047 271.99175,579.08297 271.87425,579.63547"
       id="path109"
       style="fill:#7e8082;fill-opacity:1;fill-rule:nonzero;stroke:none" />
    <path
       d="M 285.6785,579.28922 C 285.6785,577.39422 284.9435,575.51797 282.74725,575.51797 C 281.17225,575.51797 280.36975,576.27172 279.6785,577.57422 L 279.636,577.53172 L 279.9785,575.76922 L 278.35725,575.76922 L 275.2935,591.55797 L 276.91475,591.55797 L 278.17725,584.96422 L 278.2185,584.96422 C 278.6335,586.12922 279.616,586.91297 280.87475,586.91297 C 284.37475,586.91297 285.6785,582.08172 285.6785,579.28922 M 283.89225,579.52047 C 283.89225,581.30797 283.0935,585.60422 280.7585,585.60422 C 279.2435,585.60422 278.791,583.90672 278.791,582.70672 C 278.791,580.80297 279.706,576.82297 282.1735,576.82297 C 283.6885,576.82297 283.89225,578.35547 283.89225,579.52047"
       id="path113"
       style="fill:#7e8082;fill-opacity:1;fill-rule:nonzero;stroke:none" />
    <path
       d="M 295.17625,578.60547 C 295.17625,576.65922 293.64125,575.51797 291.79125,575.51797 C 288.10125,575.51797 286.6425,579.19922 286.6425,582.35922 C 286.6425,585.40547 288.17375,586.91297 291.1675,586.91297 C 291.95125,586.91297 292.74875,586.77172 293.505,586.59547 L 293.75625,585.30797 C 293.18125,585.48797 292.585,585.60422 291.995,585.60422 C 289.4975,585.60422 288.42,584.37547 288.42,581.92672 C 288.42,581.35047 288.51625,580.78172 288.63125,580.22797 L 294.94375,580.22797 C 295.07875,579.70922 295.17625,579.15922 295.17625,578.60547 M 293.54875,578.53672 C 293.54875,578.67672 293.52875,578.81172 293.505,578.94797 L 288.9275,578.94797 C 289.43125,577.66297 290.23125,576.82297 291.69375,576.82297 C 292.7725,576.82297 293.54875,577.41547 293.54875,578.53672"
       id="path117"
       style="fill:#7e8082;fill-opacity:1;fill-rule:nonzero;stroke:none" />
    <path
       d="M 302.42725,577.18672 C 299.2035,577.18672 298.261,580.00047 297.7585,582.63297 L 296.97725,586.65422 L 295.35475,586.65422 L 297.461,575.76922 L 299.08725,575.76922 L 298.64975,577.87422 L 298.69975,577.91797 C 299.5185,576.25047 300.8935,575.51797 302.751,575.51797 L 302.42725,577.18672 z"
       id="path121"
       style="fill:#7e8082;fill-opacity:1;fill-rule:nonzero;stroke:none" />
    <path
       d="M 312.05787,572.20185 C 311.51162,572.03935 310.93787,571.9281 310.34412,571.9281 C 307.98787,571.9281 307.87162,573.96435 307.53412,575.76935 L 310.62287,575.76935 L 310.36912,577.0481 L 307.27662,577.0481 L 305.42287,586.65435 L 303.80037,586.65435 L 305.65162,577.0481 L 303.84537,577.0481 L 304.09787,575.76935 L 305.90537,575.76935 C 306.52537,572.78935 306.93787,570.6231 310.55037,570.6231 C 311.14787,570.6231 311.73662,570.68185 312.31412,570.8206 L 312.05787,572.20185 z"
       id="path125"
       style="fill:#7e8082;fill-opacity:1;fill-rule:nonzero;stroke:none" />
    <path
       d="M 319.016,579.44922 C 319.016,577.09672 317.851,575.51797 315.376,575.51797 C 311.3085,575.51797 309.771,579.40422 309.771,582.90547 C 309.771,585.33047 311.0135,586.91297 313.526,586.91297 C 317.59725,586.91297 319.016,582.90547 319.016,579.44922 M 317.23475,579.79422 C 317.23475,582.01797 316.56975,585.60422 313.70975,585.60422 C 312.0585,585.60422 311.5585,584.11797 311.5585,582.72047 C 311.5585,580.50172 312.35225,576.82297 315.171,576.82297 C 316.936,576.82297 317.23475,578.37422 317.23475,579.79422"
       id="path129"
       style="fill:#7e8082;fill-opacity:1;fill-rule:nonzero;stroke:none" />
    <path
       d="M 326.72737,577.18672 C 323.49737,577.18672 322.56237,580.00047 322.06112,582.63297 L 321.27987,586.65422 L 319.65737,586.65422 L 321.75487,575.76922 L 323.38362,575.76922 L 322.95362,577.87422 L 322.98987,577.91797 C 323.82362,576.25047 325.19612,575.51797 327.04862,575.51797 L 326.72737,577.18672 z"
       id="path133"
       style="fill:#7e8082;fill-opacity:1;fill-rule:nonzero;stroke:none" />
    <path
       d="M 341.02737,579.63547 L 339.67737,586.65422 L 338.05362,586.65422 L 339.30987,580.16172 C 339.42737,579.56422 339.54237,578.97172 339.54237,578.37422 C 339.54237,577.66297 339.15112,577.02422 338.36987,577.02422 C 336.03487,577.02422 334.86862,581.14672 334.52987,582.95422 L 333.81862,586.65422 L 332.19612,586.65422 L 333.45737,580.16172 C 333.56987,579.59297 333.70737,578.97172 333.70737,578.37422 C 333.70737,577.64422 333.29612,577.02422 332.51612,577.02422 C 330.18237,577.02422 329.01612,581.14672 328.67487,582.95422 L 327.96237,586.65422 L 326.33862,586.65422 L 328.44612,575.76922 L 330.06987,575.76922 L 329.63362,577.94297 L 329.67987,577.98922 C 330.59487,576.56547 331.44112,575.51797 333.29612,575.51797 C 334.73112,575.51797 335.38487,576.63172 335.38487,577.96422 L 335.42362,577.96422 C 336.40612,576.50172 337.27737,575.51797 339.17487,575.51797 C 340.50237,575.51797 341.27862,576.59297 341.27862,577.85047 C 341.27862,578.44672 341.14362,579.06172 341.02737,579.63547"
       id="path137"
       style="fill:#7e8082;fill-opacity:1;fill-rule:nonzero;stroke:none" />
    <path
       d="M 351.82612,575.76922 L 350.17987,575.76922 L 349.88112,577.45547 L 349.86737,577.45547 C 349.44987,576.29797 348.46362,575.51797 347.20862,575.51797 C 343.72362,575.51797 342.39987,580.36297 342.39987,583.13547 C 342.39987,585.03297 343.15862,586.91297 345.33237,586.91297 C 346.90862,586.91297 347.70987,586.15172 348.39987,584.84922 L 348.44112,584.89922 L 348.09987,586.65422 L 349.71612,586.65422 L 351.82612,575.76922 z M 349.29112,579.72922 C 349.29112,581.62422 348.35112,585.60422 345.90237,585.60422 C 344.39237,585.60422 344.18612,584.08047 344.18612,582.90547 C 344.18612,581.14672 344.98737,576.82297 347.29862,576.82297 C 348.80487,576.82297 349.29112,578.48922 349.29112,579.72922"
       id="path141"
       style="fill:#7e8082;fill-opacity:1;fill-rule:nonzero;stroke:none" />
    <path
       d="M 361.16737,579.63547 L 359.78737,586.65422 L 358.16112,586.65422 L 359.42737,580.16172 C 359.54362,579.56422 359.63237,578.94797 359.63237,578.33047 C 359.63237,577.55297 359.15362,577.02422 358.37112,577.02422 C 355.91487,577.02422 354.67862,581.05297 354.31487,582.95422 L 353.61237,586.65422 L 351.98612,586.65422 L 354.08612,575.76922 L 355.70362,575.76922 L 355.27112,577.94297 L 355.31862,577.98922 C 356.32487,576.50172 357.21862,575.51797 359.17237,575.51797 C 360.56987,575.51797 361.36612,576.65922 361.36612,577.96422 C 361.36612,578.51047 361.28112,579.08297 361.16737,579.63547"
       id="path145"
       style="fill:#7e8082;fill-opacity:1;fill-rule:nonzero;stroke:none" />
    <path
       d="M 371.09737,579.08297 L 369.21612,579.08297 C 369.24237,578.85422 369.29612,578.65172 369.29612,578.41922 C 369.29612,577.45547 368.64737,576.82297 367.69237,576.82297 C 365.16612,576.82297 364.20862,579.82047 364.20862,581.87422 C 364.20862,584.25422 365.35487,585.60422 367.82612,585.60422 C 368.42362,585.60422 369.01612,585.52172 369.58987,585.37297 L 369.34237,586.61672 C 368.63112,586.77172 367.89987,586.91297 367.16487,586.91297 C 364.13862,586.91297 362.42612,585.42672 362.42612,582.33297 C 362.42612,579.03922 364.15987,575.51797 367.87237,575.51797 C 369.60737,575.51797 371.17237,576.36547 371.17237,578.25797 C 371.17237,578.53672 371.14862,578.81172 371.09737,579.08297"
       id="path149"
       style="fill:#7e8082;fill-opacity:1;fill-rule:nonzero;stroke:none" />
    <path
       d="M 379.96112,578.60547 C 379.96112,576.65922 378.43862,575.51797 376.58112,575.51797 C 372.90737,575.51797 371.44237,579.19922 371.44237,582.35922 C 371.44237,585.40547 372.97487,586.91297 375.96987,586.91297 C 376.74612,586.91297 377.54737,586.77172 378.30487,586.59547 L 378.55612,585.30797 C 377.98612,585.48797 377.37737,585.60422 376.79112,585.60422 C 374.29987,585.60422 373.22487,584.37547 373.22487,581.92672 C 373.22487,581.35047 373.31112,580.78172 373.43237,580.22797 L 379.74362,580.22797 C 379.87862,579.70922 379.96112,579.15922 379.96112,578.60547 M 378.34987,578.53672 C 378.34987,578.67672 378.32737,578.81172 378.30487,578.94797 L 373.72737,578.94797 C 374.22862,577.66297 375.03112,576.82297 376.49362,576.82297 C 377.57487,576.82297 378.34987,577.41547 378.34987,578.53672"
       id="path153"
       style="fill:#7e8082;fill-opacity:1;fill-rule:nonzero;stroke:none" />
    <path
       d="M 382.23362,586.65422 L 379.96112,586.65422 L 380.42987,584.39422 L 382.69237,584.39422 L 382.23362,586.65422 z"
       id="path157"
       style="fill:#7e8082;fill-opacity:1;fill-rule:nonzero;stroke:none" />
    <path
       d="M 398.67237,576.06672 C 398.67237,572.53422 396.95237,570.87422 393.45612,570.87422 L 389.92487,570.87422 L 386.83362,586.65422 L 390.58862,586.65422 C 396.72737,586.65422 398.67237,581.35047 398.67237,576.06672 M 396.74862,576.06672 C 396.74862,579.82047 395.62862,585.16672 390.89362,585.16672 L 388.87862,585.16672 L 391.36362,572.35672 L 392.67737,572.35672 C 395.33487,572.35672 396.74862,573.18422 396.74862,576.06672"
       id="path161"
       style="fill:#7e8082;fill-opacity:1;fill-rule:nonzero;stroke:none" />
    <path
       d="M 407.86363,578.60547 C 407.86363,576.65922 406.33613,575.51797 404.47613,575.51797 C 400.79738,575.51797 399.32363,579.19922 399.32363,582.35922 C 399.32363,585.40547 400.86238,586.91297 403.87113,586.91297 C 404.64988,586.91297 405.43988,586.77172 406.19363,586.59547 L 406.44988,585.30797 C 405.88113,585.48797 405.27488,585.60422 404.69113,585.60422 C 402.19363,585.60422 401.11863,584.37547 401.11863,581.92672 C 401.11863,581.35047 401.22113,580.78172 401.31863,580.22797 L 407.62988,580.22797 C 407.78363,579.70922 407.86363,579.15922 407.86363,578.60547 M 406.23988,578.53672 C 406.23988,578.67672 406.21363,578.81172 406.19363,578.94797 L 401.61738,578.94797 C 402.12113,577.66297 402.91988,576.82297 404.39613,576.82297 C 405.47238,576.82297 406.23988,577.41547 406.23988,578.53672"
       id="path165"
       style="fill:#7e8082;fill-opacity:1;fill-rule:nonzero;stroke:none" />
    <path
       d="M 410.24362,586.65422 L 408.62737,586.65422 L 411.68612,570.87422 L 413.31612,570.87422 L 410.24362,586.65422 z"
       id="path169"
       style="fill:#7e8082;fill-opacity:1;fill-rule:nonzero;stroke:none" />
    <path
       d="M 414.43612,586.65422 L 412.81737,586.65422 L 414.94237,575.76922 L 416.56112,575.76922 L 414.43612,586.65422 z M 417.31612,572.92297 L 415.25612,572.92297 L 415.64612,570.87422 L 417.70487,570.87422 L 417.31612,572.92297 z"
       id="path173"
       style="fill:#7e8082;fill-opacity:1;fill-rule:nonzero;stroke:none" />
    <path
       d="M 421.27112,586.65422 L 419.69862,586.65422 L 417.70487,575.76922 L 419.30862,575.76922 L 420.81862,584.37547 L 420.87112,584.37547 L 425.37487,575.76922 L 427.09612,575.76922 L 421.27112,586.65422 z"
       id="path177"
       style="fill:#7e8082;fill-opacity:1;fill-rule:nonzero;stroke:none" />
    <path
       d="M 434.98112,578.60547 C 434.98112,576.65922 433.44737,575.51797 431.60362,575.51797 C 427.90862,575.51797 426.45112,579.19922 426.45112,582.35922 C 426.45112,585.40547 427.97237,586.91297 430.97612,586.91297 C 431.75487,586.91297 432.55487,586.77172 433.31362,586.59547 L 433.56612,585.30797 C 432.99362,585.48797 432.39987,585.60422 431.79862,585.60422 C 429.30112,585.60422 428.23237,584.37547 428.23237,581.92672 C 428.23237,581.35047 428.32737,580.78172 428.44112,580.22797 L 434.75237,580.22797 C 434.89737,579.70922 434.98112,579.15922 434.98112,578.60547 M 433.35737,578.53672 C 433.35737,578.67672 433.33862,578.81172 433.31362,578.94797 L 428.73362,578.94797 C 429.23987,577.66297 430.04237,576.82297 431.50862,576.82297 C 432.58237,576.82297 433.35737,577.41547 433.35737,578.53672"
       id="path181"
       style="fill:#7e8082;fill-opacity:1;fill-rule:nonzero;stroke:none" />
    <path
       d="M 442.69487,577.18672 C 439.45737,577.18672 438.53362,580.00047 438.01612,582.63297 L 437.25112,586.65422 L 435.62487,586.65422 L 437.72362,575.76922 L 439.35112,575.76922 L 438.91862,577.87422 L 438.96987,577.91797 C 439.78487,576.25047 441.16487,575.51797 443.01237,575.51797 L 442.69487,577.18672 z"
       id="path185"
       style="fill:#7e8082;fill-opacity:1;fill-rule:nonzero;stroke:none" />
    <path
       d="M 450.84737,578.60547 C 450.84737,576.65922 449.29862,575.51797 447.45112,575.51797 C 443.77362,575.51797 442.30862,579.19922 442.30862,582.35922 C 442.30862,585.40547 443.83987,586.91297 446.83862,586.91297 C 447.61737,586.91297 448.40987,586.77172 449.16112,586.59547 L 449.41487,585.30797 C 448.84862,585.48797 448.25237,585.60422 447.65612,585.60422 C 445.16362,585.60422 444.08862,584.37547 444.08862,581.92672 C 444.08862,581.35047 444.18862,580.78172 444.29362,580.22797 L 450.61612,580.22797 C 450.75112,579.70922 450.84737,579.15922 450.84737,578.60547 M 449.21362,578.53672 C 449.21362,578.67672 449.19487,578.81172 449.16112,578.94797 L 444.58362,578.94797 C 445.08862,577.66297 445.90237,576.82297 447.36112,576.82297 C 448.43487,576.82297 449.21362,577.41547 449.21362,578.53672"
       id="path189"
       style="fill:#7e8082;fill-opacity:1;fill-rule:nonzero;stroke:none" />
    <path
       d="M 461.95862,570.87422 L 460.33612,570.87422 L 459.08237,577.45547 L 459.03487,577.45547 C 458.61737,576.29797 457.63737,575.51797 456.38112,575.51797 C 452.90612,575.51797 451.57362,580.36297 451.57362,583.13547 C 451.57362,585.03297 452.32862,586.91297 454.50237,586.91297 C 456.07862,586.91297 456.88237,586.15172 457.56862,584.84922 L 457.61612,584.89922 L 457.26737,586.65422 L 458.88612,586.65422 L 461.95862,570.87422 z M 458.45862,579.72922 C 458.45862,581.62422 457.51487,585.60422 455.07612,585.60422 C 453.56112,585.60422 453.35862,584.08047 453.35862,582.90547 C 453.35862,581.14672 454.15987,576.82297 456.46612,576.82297 C 457.97737,576.82297 458.45862,578.48922 458.45862,579.72922"
       id="path193"
       style="fill:#7e8082;fill-opacity:1;fill-rule:nonzero;stroke:none" />
    <path
       d="M 463.12737,586.65422 L 460.86112,586.65422 L 461.31612,584.39422 L 463.57987,584.39422 L 463.12737,586.65422 z"
       id="path197"
       style="fill:#7e8082;fill-opacity:1;fill-rule:nonzero;stroke:none" />
  </g>
</svg>
