<?xml version="1.0" encoding="UTF-8" standalone="no"?>
<!-- Created with Inkscape (http://www.inkscape.org/) -->

<svg
   version="1.0"
   width="149.883"
   height="32.674"
   id="svg2706"
   sodipodi:docname="accenture.svg"
   inkscape:version="1.3.2 (091e20e, 2023-11-25)"
   xmlns:inkscape="http://www.inkscape.org/namespaces/inkscape"
   xmlns:sodipodi="http://sodipodi.sourceforge.net/DTD/sodipodi-0.dtd"
   xmlns="http://www.w3.org/2000/svg"
   xmlns:svg="http://www.w3.org/2000/svg">
  <sodipodi:namedview
     id="namedview1"
     pagecolor="#ffffff"
     bordercolor="#000000"
     borderopacity="0.25"
     inkscape:showpageshadow="2"
     inkscape:pageopacity="0.0"
     inkscape:pagecheckerboard="0"
     inkscape:deskcolor="#d1d1d1"
     inkscape:zoom="2.8027047"
     inkscape:cx="113.10503"
     inkscape:cy="19.267103"
     inkscape:window-width="1280"
     inkscape:window-height="449"
     inkscape:window-x="0"
     inkscape:window-y="25"
     inkscape:window-maximized="0"
     inkscape:current-layer="layer1" />
  <defs
     id="defs2708">
    <clipPath
       id="clipPath51">
      <path
         d="M 0,329.628 H 245.003 V 479.401 H 0 Z"
         id="path53" />
    </clipPath>
  </defs>
  <g
     transform="matrix(0.61526393,0,0,0.61526393,-145.40617,-306.44787)"
     id="layer1"
     style="stroke-width:1.62531">
    <path
       d="m 275.70512,546.65611 v -21.07125 c 0,-6.835 -4.485,-9.195 -10.7625,-9.195 -6.1475,0 -11.265,2.60875 -11.265,9.38125 h 6.73375 c 0,-2.925 1.55125,-4.53875 4.53125,-4.53875 3.41875,0 4.16625,2.4875 4.16625,5.40875 v 2.92875 c -6.71625,0.1875 -16.54,1.1225 -16.54,10.01375 0,5.0325 3.985,7.7675 8.70125,7.7675 3.24,0 6.21875,-1.06 7.72125,-4.10625 h 0.1175 v 3.41125 h 6.59625 m -6.59625,-13.045 c 0,3.79875 -1.55625,8.88625 -6.155,8.88625 -2.3075,0 -3.67125,-1.18375 -3.67125,-3.545 0,-4.44875 6.5325,-5.34125 9.82625,-5.34125"
       id="path57"
       style="fill:#7e8082;fill-opacity:1;fill-rule:nonzero;stroke:none;stroke-width:1.62531" />
    <path
       d="m 296.16775,527.21148 c 0,-3.05 -0.87,-5.97875 -4.475,-5.97875 -4.3575,0 -5.66,4.53875 -5.66,8.095 0,7.46125 4.34125,13.16875 12.19625,13.16875 1.6675,0 3.34125,-0.185 4.965,-0.76625 v 4.24875 c -2.805,0.88125 -5.71875,1.37125 -8.64625,1.37125 -10.565,0 -15.8525,-6.47625 -15.8525,-16.78625 0,-8.59375 4.675,-14.17375 13.56,-14.17375 7.21375,0 11.2475,3.5325 11.2475,10.82125 h -7.335"
       id="path61"
       style="fill:#7e8082;fill-opacity:1;fill-rule:nonzero;stroke:none;stroke-width:1.62531" />
    <path
       d="m 322.67537,527.21148 c 0,-3.05 -0.8725,-5.97875 -4.47125,-5.97875 -4.34875,0 -5.6675,4.53875 -5.6675,8.095 0,7.46125 4.37,13.16875 12.19625,13.16875 1.67375,0 3.35375,-0.185 4.96625,-0.76625 v 4.24875 c -2.7875,0.88125 -5.715,1.37125 -8.63875,1.37125 -10.57125,0 -15.84875,-6.47625 -15.84875,-16.78625 0,-8.59375 4.66875,-14.17375 13.5475,-14.17375 7.22,0 11.26,3.5325 11.26,10.82125 h -7.34375"
       id="path65"
       style="fill:#7e8082;fill-opacity:1;fill-rule:nonzero;stroke:none;stroke-width:1.62531" />
    <path
       d="m 356.25612,530.07523 v -1.69375 c 0,-7.2175 -3.72375,-11.99125 -11.255,-11.99125 -8.82625,0 -12.6875,5.53 -12.6875,13.925 0,9.75875 4.41375,17.035 14.91875,17.035 2.80125,0 5.60125,-0.31625 8.2675,-1.1875 v -4.76375 c -1.7325,0.60125 -3.79125,1.09875 -5.645,1.09875 -6.72125,0 -11.135,-6.135 -11.135,-12.4225 h 17.53625 m -6.52875,-4.17875 h -10.81625 c 0.30625,-2.98875 2.61625,-5.11375 5.585,-5.11375 3.18,0 5.23125,1.9425 5.23125,5.11375"
       id="path69"
       style="fill:#7e8082;fill-opacity:1;fill-rule:nonzero;stroke:none;stroke-width:1.62531" />
    <path
       d="m 376.70987,546.65611 v -16.89875 c 0,-1.42875 0.1225,-5.22875 -1.05375,-6.34875 -0.50625,-0.50125 -1.3025,-0.5625 -1.99375,-0.5625 -4.97375,0 -6.96625,7.02875 -6.96625,11.02125 v 12.78875 h -6.9 v -29.59 h 6.9 v 5.5325 h 0.12625 c 1.55875,-3.78875 4.53125,-6.20875 8.76875,-6.20875 5.66125,0 8.02375,4.6625 8.02375,9.75875 v 20.5075 h -6.905"
       id="path73"
       style="fill:#7e8082;fill-opacity:1;fill-rule:nonzero;stroke:none;stroke-width:1.62531" />
    <path
       d="m 397.97737,521.85373 v 13.99375 c 0,3.4925 0.3625,6.65 4.67,6.65 1.0475,0 2.11375,-0.235 3.17,-0.4975 v 4.86 c -1.87625,0.30375 -3.79,0.49 -5.6625,0.49 -6.04875,0 -9.06375,-1.99625 -9.06375,-8.14125 v -17.355 h -5.79125 v -4.7875 h 5.79125 v -7.0125 l 6.88625,-2.80625 v 9.81875 h 8.76875 v 4.7875 h -8.76875"
       id="path77"
       style="fill:#7e8082;fill-opacity:1;fill-rule:nonzero;stroke:none;stroke-width:1.62531" />
    <path
       d="m 426.72362,546.65611 v -5.52 h -0.12 c -1.57375,3.72125 -4.60375,6.215 -8.7725,6.215 -5.6575,0 -8.0275,-4.65875 -8.0275,-9.7525 v -20.5325 h 6.9075 v 16.92625 c 0,1.4325 -0.12125,5.21625 1.05,6.33375 0.5075,0.50125 1.3075,0.5475 2,0.5475 4.96375,0 6.9625,-7.00625 6.9625,-10.99875 v -12.80875 h 6.9125 v 29.59 h -6.9125"
       id="path81"
       style="fill:#7e8082;fill-opacity:1;fill-rule:nonzero;stroke:none;stroke-width:1.62531" />
    <path
       d="m 444.87612,533.68361 v 12.9725 h -6.89625 v -29.59 h 6.89625 v 5.465 h 0.1225 c 2.31,-4.08375 4.60625,-6.14125 9.58375,-6.14125 v 7.20625 c -7.085,0 -9.70625,3.1075 -9.70625,10.0875"
       id="path85"
       style="fill:#7e8082;fill-opacity:1;fill-rule:nonzero;stroke:none;stroke-width:1.62531" />
    <path
       d="m 479.90612,530.07523 v -1.69375 c 0,-7.2175 -3.725,-11.99125 -11.2525,-11.99125 -8.8275,0 -12.695,5.53 -12.695,13.925 0,9.75875 4.42125,17.035 14.91875,17.035 2.81375,0 5.605,-0.31625 8.27875,-1.1875 v -4.76375 c -1.73125,0.60125 -3.79,1.09875 -5.64875,1.09875 -6.72,0 -11.14125,-6.135 -11.14125,-12.4225 h 17.54 m -6.53125,-4.17875 h -10.81375 c 0.315,-2.98875 2.6075,-5.11375 5.59125,-5.11375 3.175,0 5.2225,1.9425 5.2225,5.11375"
       id="path89"
       style="fill:#7e8082;fill-opacity:1;fill-rule:nonzero;stroke:none;stroke-width:1.62531" />
  </g>
</svg>
