<?xml version="1.0" encoding="UTF-8" standalone="no"?>
<!-- Created with Inkscape (http://www.inkscape.org/) -->

<svg
   width="59.416489mm"
   height="18.209949mm"
   viewBox="0 0 59.416489 18.209949"
   version="1.1"
   id="svg1"
   inkscape:version="1.3.2 (091e20e, 2023-11-25)"
   xmlns:inkscape="http://www.inkscape.org/namespaces/inkscape"
   xmlns:sodipodi="http://sodipodi.sourceforge.net/DTD/sodipodi-0.dtd"
   xmlns="http://www.w3.org/2000/svg"
   xmlns:svg="http://www.w3.org/2000/svg">
  <sodipodi:namedview
     id="namedview1"
     pagecolor="#ffffff"
     bordercolor="#000000"
     borderopacity="0.25"
     inkscape:showpageshadow="2"
     inkscape:pageopacity="0.0"
     inkscape:pagecheckerboard="0"
     inkscape:deskcolor="#d1d1d1"
     inkscape:document-units="mm"
     inkscape:zoom="0.2102413"
     inkscape:cx="114.15454"
     inkscape:cy="33.295075"
     inkscape:window-width="1280"
     inkscape:window-height="449"
     inkscape:window-x="0"
     inkscape:window-y="25"
     inkscape:window-maximized="0"
     inkscape:current-layer="layer1" />
  <defs
     id="defs1" />
  <g
     inkscape:label="Layer 1"
     inkscape:groupmode="layer"
     id="layer1"
     transform="translate(-74.877083,-139.43542)">
    <path
       id="FinancialTimes"
       d="m 77.118765,145.35547 c 0,0.71438 0.192485,0.79375 1.006409,0.82682 v 0.25467 H 74.88502 v -0.25467 c 0.673034,-0.0331 0.865519,-0.11244 0.865519,-0.82682 v -4.66989 c 0,-0.71769 -0.192485,-0.79706 -0.847659,-0.82683 v -0.26127 h 5.720622 l 0.0387,1.50812 h -0.281451 c -0.241763,-0.76398 -0.502708,-1.00541 -1.842161,-1.00541 h -1.037498 c -0.311547,0 -0.382323,0.0694 -0.382323,0.35388 v 2.16296 h 1.169128 c 1.066932,0 1.298112,-0.19182 1.42875,-0.90619 h 0.262268 v 2.41763 h -0.262268 c -0.140891,-0.80698 -0.54405,-1.00873 -1.42875,-1.00873 h -1.169128 z m 6.746214,0 c 0,0.71438 0.189838,0.79375 1.006409,0.82682 v 0.25467 h -3.38369 v -0.25467 c 0.817893,-0.0331 1.006408,-0.11244 1.006408,-0.82682 v -4.66989 c 0,-0.71769 -0.188515,-0.79706 -1.006408,-0.82683 v -0.26127 h 3.38369 v 0.26127 c -0.816571,0.0298 -1.006409,0.10914 -1.006409,0.82683 z m 8.064169,-4.47807 c 0,-0.66477 -0.182232,-0.93596 -0.927695,-1.01865 v -0.26127 h 2.415976 v 0.26127 c -0.74414,0.0827 -0.925049,0.35388 -0.925049,1.01865 v 5.72823 h -0.342305 l -4.670227,-5.3975 v 3.95552 c 0,0.66476 0.179586,0.93596 0.92505,1.01864 v 0.25467 h -2.4173 v -0.25467 c 0.745464,-0.0827 0.926373,-0.35388 0.926373,-1.01864 v -4.60706 c -0.23118,-0.4068 -0.504031,-0.59862 -0.926373,-0.69784 v -0.26127 h 1.862998 l 4.078552,4.71289 z m 3.653565,3.10885 1.026914,-2.70867 1.017984,2.70867 z m 4.902727,2.45071 v -0.25467 c -0.512959,0.01 -0.643266,-0.21166 -0.905369,-0.85658 l -2.407047,-5.89029 h -0.330729 l -2.507589,6.10195 c -0.171648,0.42334 -0.403158,0.55232 -0.835752,0.64492 v 0.25467 h 2.174213 v -0.25467 c -0.472942,0 -0.704122,-0.10252 -0.704122,-0.43325 0,-0.28112 0.31287,-1.03849 0.391583,-1.26008 h 2.477823 c 0.08004,0.22159 0.412089,0.97896 0.412089,1.26008 0,0.33073 -0.250693,0.43325 -0.724628,0.43325 v 0.25467 z m 6.63509,-5.55956 c 0,-0.66477 -0.18058,-0.93596 -0.92488,-1.01865 v -0.26127 h 2.41581 v 0.26127 c -0.74547,0.0827 -0.92737,0.35388 -0.92737,1.01865 v 5.72823 h -0.34131 l -4.67188,-5.3975 1.7e-4,3.95552 c 0,0.66476 0.18091,0.93596 0.92637,1.01864 v 0.25467 h -2.4173 v -0.25467 c 0.74546,-0.0827 0.9277,-0.35388 0.9277,-1.01864 v -4.60706 c -0.23251,-0.4068 -0.50503,-0.59862 -0.9277,-0.69784 v -0.26127 h 1.863 l 4.07722,4.71289 2.7e-4,-3.43297 z m 8.64427,3.95221 c -0.7157,1.22039 -1.65232,1.77602 -3.07214,1.77602 -2.22482,0 -3.54377,-1.46182 -3.54377,-3.64794 0,-1.55774 1.22866,-3.52227 3.61487,-3.52227 0.71438,0 1.72972,0.40349 1.88218,0.40349 0.20042,0 0.26095,-0.10914 0.424,-0.40349 h 0.34098 l 0.14188,2.28534 h -0.30229 c -0.40415,-1.05833 -1.1172,-1.82232 -2.31609,-1.82232 -1.61131,0 -2.31511,1.74294 -2.31511,3.05925 0,1.84546 0.79442,3.08239 2.49701,3.08239 1.32821,0 2.06342,-0.98557 2.37596,-1.41883 z m 3.31523,0.52586 c 0,0.71438 0.19248,0.79375 1.0074,0.82682 v 0.25467 h -3.38336 v -0.25467 c 0.81657,-0.0331 1.00773,-0.11244 1.00773,-0.82682 v -4.66989 c 0,-0.71769 -0.19116,-0.79706 -1.00773,-0.82683 v -0.26127 h 3.38336 v 0.26127 c -0.81492,0.0298 -1.0074,0.10914 -1.0074,0.82683 z m 3.81099,-1.36922 1.02691,-2.70867 1.017,2.70867 z m 4.90405,2.45071 v -0.25467 c -0.51428,0.01 -0.64459,-0.21166 -0.90553,-0.85658 l -2.40705,-5.89029 h -0.33172 l -2.50759,6.10195 c -0.17198,0.42334 -0.40316,0.55232 -0.83608,0.64492 v 0.25467 h 2.17421 v -0.25467 c -0.47261,0 -0.70379,-0.10252 -0.70379,-0.43325 0,-0.28112 0.31254,-1.03849 0.39257,-1.26008 h 2.4765 c 0.08,0.22159 0.41209,0.97896 0.41209,1.26008 0,0.33073 -0.25168,0.43325 -0.72463,0.43325 v 0.25467 z m 0.59829,0 v -0.25467 c 0.65484,-0.0298 0.84601,-0.11244 0.84601,-0.82682 v -4.66989 c 0,-0.71769 -0.19117,-0.79706 -0.84601,-0.82683 v -0.26127 h 3.16111 v 0.26127 c -0.75439,0.0298 -0.94688,0.10914 -0.94688,0.82683 v 4.80218 c 0,0.41342 0.12138,0.55232 0.88636,0.55232 1.22866,0 1.95328,-0.22159 2.53735,-1.42875 h 0.26227 l -0.46269,1.82563 z M 76.3862,157.22534 c 0.777544,-0.0331 0.967383,-0.11245 0.967383,-0.82682 v -5.25529 h -0.844682 c -0.795735,0 -1.108604,0.32081 -1.329532,1.24685 h -0.302286 l 0.161396,-1.74956 h 5.999758 l 0.161395,1.74956 h -0.303609 c -0.219604,-0.92604 -0.532143,-1.24685 -1.326555,-1.24685 h -0.846336 v 5.25529 c 0,0.71437 0.191162,0.79375 0.965068,0.82682 V 157.48 h -3.302 z m 7.893513,-0.82682 c 0,0.71437 0.192484,0.79375 1.007732,0.82351 V 157.48 h -3.38369 v -0.25797 c 0.817893,-0.0298 1.007732,-0.10914 1.007732,-0.82351 v -4.6732 c 0,-0.71438 -0.189839,-0.79375 -1.007732,-0.82352 v -0.26458 h 3.38369 v 0.26458 c -0.815248,0.0298 -1.007732,0.10914 -1.007732,0.82352 z m 8.194477,-5.758 h 2.356445 v 0.26128 c -0.654844,0.0298 -0.844682,0.10914 -0.844682,0.82352 v 4.6732 c 0,0.71437 0.189838,0.79375 0.844682,0.82682 V 157.48 h -3.081073 v -0.25466 c 0.674357,-0.0331 0.866841,-0.11245 0.866841,-0.82682 v -4.81211 h -0.02084 l -2.285338,5.97958 H 89.99769 l -2.233745,-5.97958 h -0.0205 v 4.62029 c 0,0.66476 0.180578,0.93596 0.926041,1.01864 V 157.48 H 86.25384 v -0.25466 c 0.744141,-0.0827 0.92505,-0.35388 0.92505,-1.01864 v -4.65006 c 0,-0.47294 -0.200422,-0.65484 -0.92505,-0.65484 v -0.26128 h 2.486753 l 1.821656,4.74927 z m 3.328127,6.83948 v -0.25466 c 0.653521,-0.0331 0.844682,-0.11245 0.844682,-0.82682 v -4.6732 c 0,-0.71438 -0.191161,-0.79375 -0.844682,-0.82352 v -0.26128 h 5.717643 l 0.0402,1.50813 h -0.28046 c -0.24276,-0.76399 -0.50503,-1.00542 -1.843321,-1.00542 h -1.036174 c -0.313862,0 -0.382323,0.0695 -0.382323,0.35058 v 2.16627 h 1.166482 c 1.067096,0 1.298276,-0.19182 1.430236,-0.9062 h 0.26194 v 2.41433 h -0.26194 c -0.14221,-0.80368 -0.54405,-1.00542 -1.430236,-1.00542 h -1.166482 v 2.36802 c 0,0.4101 0.120054,0.55232 1.328208,0.55232 1.22717,0 1.95312,-0.22159 2.53686,-1.43206 h 0.26128 l -0.46269,1.82893 h -5.879048 z m 7.232053,-2.14974 h 0.26359 c 0.2907,0.9062 1.15755,1.85209 2.16529,1.85209 0.86419,0 1.1769,-0.60193 1.1769,-1.13771 0,-1.57096 -3.54377,-1.86201 -3.54377,-3.81331 -1.5e-4,-0.94588 0.91596,-1.75286 1.96238,-1.75286 1.02692,0 1.3889,0.36049 1.84366,0.36049 0.19116,0 0.31154,-0.14883 0.36181,-0.36049 h 0.26227 v 2.17289 h -0.26227 c -0.28178,-0.98558 -0.98574,-1.70987 -1.91343,-1.70987 -0.76365,0 -1.04775,0.49278 -1.04775,0.95911 0,1.39568 3.54542,1.43867 3.54542,3.84308 -2.7e-4,1.07486 -0.88537,1.90169 -2.11551,1.90169 -1.20783,0 -1.51937,-0.42003 -1.99331,-0.42003 -0.17958,0 -0.30228,0.11906 -0.34131,0.34065 h -0.36413 l 1e-5,-2.23573 z"
       fill="#71717A"
       style="stroke-width:0.330729" />
  </g>
</svg>
