<?xml version="1.0" encoding="UTF-8" standalone="no"?>
<svg
   width="162.85481"
   height="30"
   version="1.1"
   id="svg1"
   sodipodi:docname="iag.svg"
   inkscape:version="1.3.2 (091e20e, 2023-11-25)"
   xmlns:inkscape="http://www.inkscape.org/namespaces/inkscape"
   xmlns:sodipodi="http://sodipodi.sourceforge.net/DTD/sodipodi-0.dtd"
   xmlns="http://www.w3.org/2000/svg"
   xmlns:svg="http://www.w3.org/2000/svg">
  <defs
     id="defs1" />
  <sodipodi:namedview
     id="namedview1"
     pagecolor="#ffffff"
     bordercolor="#000000"
     borderopacity="0.25"
     inkscape:showpageshadow="2"
     inkscape:pageopacity="0.0"
     inkscape:pagecheckerboard="0"
     inkscape:deskcolor="#d1d1d1"
     inkscape:zoom="1.595"
     inkscape:cx="189.96865"
     inkscape:cy="36.363636"
     inkscape:window-width="1280"
     inkscape:window-height="449"
     inkscape:window-x="0"
     inkscape:window-y="25"
     inkscape:window-maximized="0"
     inkscape:current-layer="svg1" />
  <path
     d="M 58.430166,0 C 49.166183,0 42.336034,6.5935575 42.336034,15.001637 v 0.08238 c 0,8.73652 6.958665,14.915983 16.2639,14.915983 5.422238,0 9.820243,-1.936485 12.978516,-4.449762 V 12.570407 H 57.832416 v 5.851798 h 5.890143 v 3.501888 c -1.238046,0.782681 -2.773424,1.195838 -4.780128,1.195838 -4.737905,0 -8.11203,-3.338069 -8.11203,-7.995194 v -0.08076 c 0,-4.410897 3.330931,-7.9136983 7.643115,-7.9136983 2.944808,0 5.079023,0.9893896 7.212933,2.7181447 L 70.553563,4.2042807 C 67.394536,1.5673941 63.679667,2.523432e-4 58.429678,2.523432e-4 Z M 23.419716,0.45006534 10.669709,29.438075 H 23.50758 L 19.256217,14.45425 19.185079,14.2886 h 4.27901 c 0.885873,0 1.388675,0.52037 1.388675,0.52037 0,0 10.276725,10.673879 13.042284,12.783361 2.222884,1.69694 3.586848,1.817201 4.635441,1.817201 0.691855,0 1.726005,-0.004 1.726005,-0.004 L 31.420314,0.44969679 H 23.419706 Z M 0,0.45087101 V 29.431872 H 8.3430066 V 0.45087199 Z m 136.38009,0.28280157 c -1.08161,0 -1.94651,0.34934252 -2.59581,1.04881622 -0.64555,0.6961314 -0.9685,1.6310973 -0.9685,2.8046022 0,1.1734989 0.32295,2.1084643 0.9685,2.8045948 0.6493,0.6961588 1.51424,1.0439277 2.59581,1.0439277 1.07848,0 1.94077,-0.3477801 2.5866,-1.0439277 0.64572,-0.6994312 0.9684,-1.634409 0.9684,-2.8045948 0,-1.1735049 -0.32266,-2.1084708 -0.9684,-2.8046022 -0.64576,-0.6994443 -1.50812,-1.04881622 -2.5866,-1.04881622 z M 77.438549,0.867802 v 7.4230472 h 1.041316 V 0.86780305 Z m 2.658577,0 v 7.4230472 h 1.010217 V 2.0803625 l 3.410229,6.2104876 h 1.400504 V 0.86780305 H 84.908395 V 7.0782862 L 81.498437,0.86780305 Z m 7.067985,0 v 0.8451901 h 2.729596 v 6.5778571 h 1.046235 V 1.7129934 h 2.729639 V 0.86780305 H 87.16492 Z m 7.690524,0 v 7.4230472 h 4.955414 V 7.4456417 H 95.896193 V 4.7557604 h 3.662919 V 3.9105733 H 95.896193 V 1.7127858 h 3.822468 V 0.86759531 h -4.863116 z m 6.867945,0 v 7.4230472 h 1.04044 V 5.153329 h 1.13353 c 0.41192,0 0.73651,0.081586 0.97343,0.2440238 0.24055,0.1624195 0.48757,0.4925465 0.74177,0.9898079 l 0.98436,1.9037037 h 1.11728 L 106.6589,6.2627628 c -0.21284,-0.4176717 -0.42665,-0.746266 -0.63955,-0.9849796 -0.20944,-0.2386688 -0.42548,-0.3940954 -0.64875,-0.4670262 0.42915,-0.1193341 0.75551,-0.3332648 0.97849,-0.6415617 0.22688,-0.3082906 0.34002,-0.6961354 0.34002,-1.1635358 0,-0.7160331 -0.21604,-1.2516072 -0.64887,-1.6063171 -0.43264,-0.354697 -1.0888,-0.53168841 -1.96789,-0.53168841 h -2.34882 z m 7.42708,0 v 7.4230472 h 1.00984 V 2.0803625 l 3.4099,6.2104876 h 1.40118 V 0.86780305 h -1.00921 V 7.0782862 l -3.4105,-6.21048315 z m 9.89492,0 -2.93525,7.4230472 h 1.09733 l 0.69978,-1.903695 h 3.46706 l 0.70024,1.903695 h 1.08185 L 120.22612,0.867802 h -1.18058 z m 4.1353,0 v 0.8451901 h 2.73053 v 6.5778571 h 1.0451 V 1.7129934 h 2.73066 V 0.86780305 h -6.50648 z m 7.42798,0 v 7.4230472 h 1.04038 V 0.86780305 Z m 11.20303,0 v 7.4230472 h 1.01058 V 2.0803625 l 3.40915,6.2104876 h 1.40121 V 0.86780305 h -1.00932 V 7.0782862 l -3.41037,-6.21048315 z m 10.10674,0 -2.93653,7.4230472 h 1.09753 l 0.70065,-1.903695 h 3.4669 l 0.70091,1.903695 h 1.08122 L 153.0979,0.867802 Z m 6.15079,0 v 7.4230472 h 4.78539 V 7.4456417 h -3.74503 V 0.867802 Z m -21.69108,0.6811595 c 0.75542,0 1.3533,0.2716296 1.79283,0.8152807 0.44289,0.543644 0.66455,1.2847059 0.66455,2.2228162 0,0.9347983 -0.22167,1.6735364 -0.66455,2.2171808 -0.43953,0.5436427 -1.03741,0.8161188 -1.79283,0.8161188 -0.75567,0 -1.35577,-0.2724399 -1.80248,-0.8161188 -0.443,-0.5436444 -0.66436,-1.2823394 -0.66436,-2.2171808 0,-0.9381504 0.22137,-1.6791722 0.66436,-2.2228162 0.44671,-0.5436457 1.04679,-0.8152807 1.80248,-0.8152807 z m -33.61398,0.1438283 h 1.30825 c 0.50158,0 0.87937,0.1116044 1.13334,0.333706 0.25765,0.2187848 0.38668,0.5450519 0.38668,0.9793124 0,0.4342622 -0.12903,0.7635675 -0.38668,0.988994 -0.25402,0.2221039 -0.63176,0.3337083 -1.13334,0.3337083 h -1.30825 V 1.6927817 Z m 16.86899,0.1640212 1.41625,3.6950181 h -2.82722 z m 32.87298,0 1.41623,3.6950181 h -2.82768 l 1.4115,-3.6950181 z m -30.15198,9.060048 c -0.84106,0 -1.50203,0.1885 -1.983,0.566399 -0.47745,0.37792 -0.71539,0.894989 -0.71539,1.551365 0,0.566883 0.17265,1.009332 0.51961,1.327574 0.34703,0.318261 0.90898,0.552168 1.68512,0.701351 l 0.63284,0.119597 c 0.52893,0.10275 0.90804,0.25664 1.13813,0.462184 0.23382,0.205528 0.35094,0.491006 0.35094,0.855703 0,0.417645 -0.16199,0.738542 -0.48493,0.963939 -0.32248,0.225426 -0.78107,0.338585 -1.37509,0.338585 -0.39157,0 -0.78909,-0.05857 -1.1943,-0.174529 -0.40524,-0.116056 -0.81896,-0.288408 -1.24168,-0.517157 v 1.03428 c 0.43975,0.1558 0.86391,0.273511 1.2722,0.3531 0.41237,0.07954 0.79989,0.119554 1.16378,0.119554 0.96506,0 1.69689,-0.185436 2.19484,-0.556703 0.50141,-0.371261 0.75134,-0.916898 0.75134,-1.636237 0,-0.603338 -0.18476,-1.083455 -0.55538,-1.441493 -0.36782,-0.361314 -0.939,-0.613765 -1.71561,-0.756295 l -0.62826,-0.124411 c -0.57009,-0.102781 -0.95864,-0.236631 -1.16453,-0.402413 -0.20245,-0.169032 -0.30396,-0.417631 -0.30396,-0.745779 0,-0.391141 0.15307,-0.692813 0.45866,-0.904932 0.30904,-0.212167 0.7469,-0.318363 1.31374,-0.318363 0.32617,0 0.66391,0.04451 1.01422,0.134136 0.35053,0.08946 0.72326,0.225685 1.11856,0.408037 v -0.980103 c -0.39177,-0.125987 -0.77513,-0.219842 -1.14926,-0.282823 -0.37436,-0.06298 -0.74209,-0.09455 -1.10273,-0.09455 z m -42.934097,0.134111 -2.936624,7.423873 h 1.097558 l 0.70042,-1.904472 h 3.466453 l 0.700436,1.904472 h 1.081709 l -2.930637,-7.423871 h -1.179357 z m 6.350541,0 v 7.423873 h 1.040387 v -7.423871 z m 2.858511,0 v 7.423873 h 1.040318 v -3.137488 h 1.133256 c 0.412252,0 0.736774,0.08073 0.973729,0.24321 0.240415,0.162409 0.488243,0.492546 0.742207,0.989804 l 0.983748,1.904469 h 1.117414 l -1.055432,-2.028912 c -0.212937,-0.417664 -0.425793,-0.746257 -0.638649,-0.984967 -0.209423,-0.238687 -0.426351,-0.394106 -0.649729,-0.46704 0.429297,-0.119337 0.756153,-0.333264 0.97954,-0.64155 0.226487,-0.3083 0.339847,-0.696153 0.339847,-1.163557 0,-0.716029 -0.216856,-1.251611 -0.649649,-1.606283 -0.432765,-0.354714 -1.08781,-0.531696 -1.966927,-0.531696 h -2.349619 z m 7.427014,0 v 7.423873 h 4.785401 v -0.845979 h -3.745085 v -6.577843 h -1.040316 z m 6.309001,0 v 7.423873 h 1.04032 v -7.423871 z m 2.64774,0 v 7.423873 h 1.00933 v -6.211284 l 3.4102,6.211285 h 1.40108 v -7.423872 h -1.00917 v 6.210511 l -3.41014,-6.210511 z m 7.91252,0 v 7.423873 h 4.95507 v -0.845979 h -3.91495 v -2.689883 h 3.66252 V 14.093818 H 113.9657 V 11.89604 h 3.82199 v -0.845199 h -4.86246 z m -23.255957,0.824985 h 1.309319 c 0.501477,0 0.87836,0.111601 1.132378,0.333693 0.257432,0.218813 0.386658,0.545044 0.386658,0.979336 0,0.434241 -0.129226,0.764391 -0.386658,0.989798 -0.253982,0.222104 -0.630901,0.332929 -1.132378,0.332929 h -1.309319 v -2.635752 z m -9.663056,0.164039 1.41636,3.694985 h -2.827429 z m 0.824519,9.060043 c -1.201753,0 -2.142515,0.339328 -2.822539,1.018879 -0.676364,0.676241 -1.015116,1.621209 -1.015116,2.83454 0,1.209948 0.338788,2.154917 1.015116,2.834505 0.680033,0.676228 1.620786,1.014048 2.822539,1.014048 0.549442,0 1.066185,-0.0693 1.550434,-0.208468 0.483975,-0.142544 0.927108,-0.351875 1.329064,-0.627004 v -3.186759 h -2.73025 v 0.824955 h 1.700015 v 1.994166 c -0.230032,0.129283 -0.489285,0.225461 -0.777826,0.288444 -0.288436,0.05958 -0.616737,0.08968 -0.984374,0.08968 -0.940721,0 -1.647788,-0.253942 -2.121695,-0.761123 -0.470768,-0.507196 -0.705729,-1.261276 -0.705729,-2.262432 0,-1.004419 0.234961,-1.760084 0.705729,-2.267303 0.473907,-0.507203 1.180938,-0.761116 2.121695,-0.761116 0.477354,0 0.932475,0.07995 1.365275,0.239151 0.432925,0.159145 0.841928,0.396155 1.226189,0.711072 v -1.068994 c -0.381041,-0.232036 -0.798027,-0.408293 -1.251093,-0.527634 -0.449952,-0.11934 -0.926017,-0.178567 -1.4274,-0.178567 z m 15.013459,0 c -1.081964,0 -1.94764,0.349324 -2.596838,1.04881 -0.645234,0.696117 -0.968333,1.631095 -0.968333,2.804609 0,1.173486 0.323099,2.108468 0.968333,2.804581 0.649198,0.696149 1.514874,1.043939 2.596838,1.043939 1.078072,0 1.939918,-0.347797 2.585648,-1.043939 0.645567,-0.699425 0.968342,-1.634405 0.968342,-2.804581 0,-1.173514 -0.322739,-2.108492 -0.968342,-2.804609 -0.64573,-0.699457 -1.507576,-1.04881 -2.585648,-1.04881 z m -10.337539,0.134126 v 7.423845 h 1.04042 v -3.137482 h 1.133177 c 0.412276,0 0.736831,0.08074 0.973772,0.243195 0.240203,0.162439 0.487244,0.492545 0.741256,0.989826 l 0.9845,1.904458 h 1.117612 L 90.44141,26.629096 c -0.212901,-0.417661 -0.425778,-0.745491 -0.638667,-0.98414 -0.209373,-0.238681 -0.425397,-0.394929 -0.648831,-0.467864 0.429311,-0.11935 0.755256,-0.333285 0.978633,-0.641558 0.226451,-0.308289 0.339919,-0.696152 0.339919,-1.163552 0,-0.716033 -0.216009,-1.250809 -0.648832,-1.605528 -0.432831,-0.354692 -1.088734,-0.532475 -1.9679,-0.532475 h -2.348735 z m 15.652524,0 v 4.634691 c 0,0.967969 0.24725,1.698201 0.74187,2.192115 0.49794,0.493903 1.23293,0.740947 2.20466,0.740947 0.96829,0 1.70009,-0.247038 2.19457,-0.740947 0.49799,-0.493914 0.74691,-1.224146 0.74691,-2.192115 v -4.634691 h -1.04556 v 4.51017 c 0,0.795592 -0.14895,1.368848 -0.4479,1.720243 -0.29851,0.348057 -0.78162,0.521969 -1.44795,0.521969 -0.66976,0 -1.15355,-0.173917 -1.45247,-0.521969 -0.29857,-0.351379 -0.44841,-0.924651 -0.44841,-1.720243 v -4.510169 z m 7.71448,0 v 7.423845 h 1.04049 v -2.983156 h 1.30829 c 0.8618,0 1.51292,-0.187785 1.95283,-0.562363 0.44278,-0.374606 0.66379,-0.92785 0.66379,-1.660468 0,-0.725973 -0.22104,-1.276188 -0.66379,-1.65077 -0.43991,-0.377889 -1.09103,-0.567214 -1.95283,-0.567214 h -2.34881 z m -13.029465,0.681152 c 0.75536,0 1.352513,0.271633 1.792026,0.815267 0.443054,0.543642 0.664757,1.28471 0.664757,2.222822 0,0.934797 -0.221712,1.674342 -0.664757,2.217988 -0.439594,0.543642 -1.036666,0.815266 -1.792026,0.815266 -0.755496,0 -1.356748,-0.271615 -1.803,-0.815266 -0.443,-0.543646 -0.664919,-1.283191 -0.664919,-2.217988 9e-6,-0.938154 0.221919,-1.67918 0.664919,-2.222822 0.446306,-0.543627 1.047504,-0.815267 1.803,-0.815267 z m -9.296981,0.144643 h 1.308291 c 0.501456,0 0.879274,0.110794 1.133239,0.332881 0.257516,0.218811 0.38668,0.545047 0.38668,0.979339 0,0.434227 -0.129164,0.764393 -0.38668,0.989797 -0.254001,0.222099 -0.631783,0.332923 -1.133239,0.332923 H 86.547564 V 22.05999 Z m 23.367056,0 h 1.30832 c 0.4838,0 0.85867,0.120787 1.12298,0.36279 0.26451,0.242001 0.39683,0.585183 0.39683,1.029395 1e-5,0.447515 -0.13232,0.792275 -0.39683,1.034282 -0.26431,0.241967 -0.63918,0.362765 -1.12298,0.362765 h -1.30832 z"
     fill="#71717A"
     id="path1"
     style="stroke-width:1" />
</svg>
